<svg version="1.0" xmlns="http://www.w3.org/2000/svg"
 width="512.000000pt" height="512.000000pt" viewBox="0 0 512.000000 512.000000"
 preserveAspectRatio="xMidYMid meet">
<g transform="translate(0.000000,512.000000) scale(0.100000,-0.100000)"
fill="#000000" stroke="none">
<path d="M2235 5104 c-591 -80 -1100 -334 -1510 -755 -192 -197 -330 -388
-448 -621 -192 -376 -277 -737 -277 -1168 0 -431 85 -792 277 -1168 118 -233
256 -424 448 -621 413 -424 923 -678 1518 -756 156 -20 478 -20 634 0 595 78
1105 332 1518 756 192 197 330 388 448 621 192 376 277 737 277 1168 0 431
-85 792 -277 1168 -118 233 -256 424 -448 621 -413 424 -923 678 -1518 756
-146 19 -500 19 -642 -1z m-1330 -1918 c58 -16 156 -54 168 -65 7 -7 -9 -69
-23 -84 -4 -4 -48 8 -99 28 -108 41 -165 44 -228 14 -49 -24 -103 -85 -125
-144 -21 -54 -36 -634 -19 -717 24 -116 106 -194 213 -205 45 -4 68 1 145 31
51 20 97 36 102 36 10 0 47 -88 39 -95 -2 -3 -45 -19 -94 -37 -75 -27 -103
-32 -179 -33 -79 0 -96 4 -142 28 -66 34 -116 84 -151 150 l-27 52 -3 379 c-3
334 -1 384 14 430 33 100 101 177 194 220 63 30 136 34 215 12z m672 -372 c61
-30 117 -88 147 -153 20 -43 21 -64 24 -346 3 -260 5 -302 19 -318 16 -17 15
-20 -15 -49 l-31 -32 -25 23 -25 24 -52 -22 c-72 -31 -185 -39 -243 -17 -49
19 -107 71 -133 119 -26 49 -31 253 -8 314 22 57 67 108 119 136 54 28 167 28
249 0 l57 -20 0 46 c0 126 -81 231 -178 231 -23 0 -80 -9 -127 -20 -47 -11
-92 -20 -99 -20 -11 0 -40 69 -33 77 2 1 48 14 103 27 132 33 186 33 251 0z
m774 10 c30 -9 57 -19 61 -23 4 -4 3 -23 -2 -42 l-10 -35 -72 18 c-85 22 -135
18 -193 -17 -22 -12 -50 -41 -63 -63 -21 -38 -22 -50 -22 -281 0 -221 2 -245
20 -281 41 -80 122 -110 240 -89 41 7 79 13 84 14 5 0 15 -17 22 -38 13 -36
12 -38 -10 -47 -35 -13 -135 -30 -177 -30 -97 0 -205 74 -248 170 -19 41 -21
65 -21 300 0 248 1 256 24 305 62 132 206 186 367 139z m1156 -13 c86 36 208
34 280 -4 28 -15 63 -42 77 -60 54 -70 56 -90 56 -474 l0 -354 -42 3 -43 3 -5
355 c-5 335 -6 357 -26 390 -31 53 -77 80 -139 80 -63 0 -143 -23 -179 -51
l-26 -20 0 -380 0 -380 -42 3 -43 3 -3 406 c-2 346 -4 409 -17 419 -21 18 -19
30 12 62 l27 28 27 -26 28 -27 58 24z m972 4 c62 -31 125 -102 149 -169 17
-44 20 -91 25 -344 4 -208 10 -298 18 -309 10 -11 7 -20 -20 -46 l-32 -32 -18
24 -19 25 -58 -23 c-82 -31 -191 -39 -248 -17 -55 21 -117 87 -141 148 -25 68
-18 256 12 313 25 47 64 85 113 111 45 23 175 23 240 0 25 -9 50 -18 55 -19 6
-1 9 20 7 53 -4 75 -43 154 -95 191 -50 36 -96 37 -225 5 -51 -12 -94 -20 -96
-17 -2 3 -8 23 -14 43 l-10 37 101 24 c136 33 195 34 256 2z m-1797 -337 c3
-350 3 -353 27 -394 34 -61 88 -88 160 -81 31 2 83 15 116 28 l60 24 3 388 2
387 45 0 45 0 0 -408 c0 -398 1 -409 20 -427 20 -18 20 -18 -7 -47 -32 -33
-40 -34 -69 -7 l-21 20 -64 -22 c-44 -15 -89 -22 -144 -23 -99 -1 -159 24
-205 87 -56 77 -60 106 -60 484 l0 343 45 0 44 0 3 -352z"/>
<path d="M1415 2419 c-40 -12 -58 -27 -84 -69 -18 -30 -21 -51 -21 -135 0
-123 15 -159 84 -194 42 -22 51 -23 99 -13 29 6 79 22 110 36 l57 25 0 149 0
149 -47 21 c-48 22 -124 42 -153 41 -8 -1 -28 -5 -45 -10z"/>
<path d="M4316 2420 c-16 -5 -40 -19 -53 -32 -44 -41 -53 -71 -53 -174 0 -118
20 -162 87 -195 50 -24 90 -21 196 18 l67 25 0 153 0 153 -42 20 c-41 19 -135
43 -161 41 -7 0 -25 -5 -41 -9z"/>
</g>
</svg>
